<svg width="45" height="43" viewBox="0 0 45 43" fill="none" xmlns="http://www.w3.org/2000/svg">
<path d="M39.8493 28.4695C38.6565 31.165 36.7908 33.5403 34.4153 35.3876C32.0399 37.235 29.227 38.4982 26.2226 39.0668C23.2182 39.6354 20.1138 39.4921 17.1808 38.6494C14.2478 37.8067 11.5755 36.2902 9.39746 34.2327C7.21944 32.1751 5.60207 29.639 4.68673 26.8461C3.7714 24.0533 3.58597 21.0887 4.14666 18.2115C4.70736 15.3344 5.9971 12.6323 7.90313 10.3414C9.80916 8.05063 12.2734 6.24084 15.0805 5.07031" fill="#A36BFD"/>
<path d="M39.8493 28.4695C38.6565 31.165 36.7908 33.5403 34.4153 35.3876C32.0399 37.235 29.227 38.4982 26.2226 39.0668C23.2182 39.6354 20.1138 39.4921 17.1808 38.6494C14.2478 37.8067 11.5755 36.2902 9.39746 34.2327C7.21945 32.1751 5.60207 29.639 4.68673 26.8461C3.7714 24.0533 3.58597 21.0887 4.14666 18.2115C4.70736 15.3344 5.9971 12.6323 7.90313 10.3414C9.80916 8.05063 12.2734 6.24084 15.0805 5.07031" stroke="white" stroke-linecap="round" stroke-linejoin="round"/>
<path d="M41.25 21.4999C41.25 19.1471 40.765 16.8173 39.8227 14.6435C38.8805 12.4698 37.4994 10.4946 35.7583 8.83092C34.0172 7.16721 31.9502 5.84747 29.6753 4.94708C27.4005 4.04668 24.9623 3.58325 22.5 3.58325V21.4999H41.25Z" fill="#60CDAC" stroke="white" stroke-linecap="round" stroke-linejoin="round"/>
</svg>
