<svg width="47" height="48" viewBox="0 0 47 48" fill="none" xmlns="http://www.w3.org/2000/svg">
<g clip-path="url(#clip0_18_2)">
<path d="M33.2917 28V22H39.1667V18L47 25L39.1667 32V28H33.2917ZM31.3333 15.4V18H7.83334V15.4L19.5833 8L31.3333 15.4ZM17.625 20H21.5417V30H17.625V20ZM9.79167 20H13.7083V30H9.79167V20ZM29.375 20V25L25.4583 28.6V20H29.375ZM21.7375 32L20.5625 33L23.8917 36H7.83334V32H21.7375ZM37.2083 30V36H31.3333V40L23.5 33L31.3333 26V30H37.2083Z" fill="#131215"/>
</g>
<defs>
<clipPath id="clip0_18_2">
<rect width="47" height="48" fill="white"/>
</clipPath>
</defs>
</svg>
