<svg width="374" height="218" viewBox="0 0 374 218" fill="none" xmlns="http://www.w3.org/2000/svg">
<path fill-rule="evenodd" clip-rule="evenodd" d="M28 0C12.536 0 0 12.536 0 28V48.1319H3.82584C7.99055 48.1319 11.3667 51.508 11.3667 55.6727C11.3667 59.8375 7.99055 63.2136 3.82584 63.2136H0V109.83H4.51137C8.29747 109.83 11.3667 112.899 11.3667 116.685C11.3667 120.471 8.29747 123.541 4.51137 123.541H0V170.157H3.82584C7.99055 170.157 11.3667 173.533 11.3667 177.698C11.3667 181.863 7.99055 185.239 3.82584 185.239H0V190C0 205.464 12.536 218 28 218H342C359.673 218 374 203.673 374 186V32C374 14.3269 359.673 0 342 0H28Z" fill="#fdb7b2"/>
</svg>
