<svg width="341" height="218" viewBox="0 0 341 218" fill="none" xmlns="http://www.w3.org/2000/svg">
<path fill-rule="evenodd" clip-rule="evenodd" d="M28 0C12.536 0 0 12.536 0 28V190C0 205.464 12.536 218 28 218H309C326.673 218 341 203.673 341 186V178.239H337.174C333.009 178.239 329.633 174.863 329.633 170.698C329.633 166.533 333.009 163.157 337.174 163.157H341V116.541H336.489C332.703 116.541 329.633 113.472 329.633 109.685C329.633 105.899 332.703 102.83 336.489 102.83H341V56.2139H337.174C333.009 56.2139 329.633 52.8377 329.633 48.673C329.633 44.5083 333.009 41.1321 337.174 41.1321H341V32C341 14.3269 326.673 0 309 0H28Z" fill= "#F2A0FF"/>
</svg>
