<svg width="45" height="47" viewBox="0 0 45 47" fill="none" xmlns="http://www.w3.org/2000/svg">
<path d="M36.9636 29.6364C36.7035 30.2533 36.6258 30.9377 36.7408 31.6012C36.8558 32.2647 37.158 32.877 37.6086 33.3591L37.7259 33.4818C38.0894 33.8618 38.3777 34.3129 38.5744 34.8096C38.7711 35.3062 38.8724 35.8385 38.8724 36.3761C38.8724 36.9137 38.7711 37.4461 38.5744 37.9427C38.3777 38.4393 38.0894 38.8905 37.7259 39.2705C37.3629 39.6508 36.9317 39.9526 36.4572 40.1584C35.9826 40.3643 35.4739 40.4703 34.9602 40.4703C34.4465 40.4703 33.9378 40.3643 33.4633 40.1584C32.9887 39.9526 32.5576 39.6508 32.1945 39.2705L32.0773 39.1477C31.6166 38.6762 31.0316 38.3598 30.3975 38.2395C29.7635 38.1192 29.1095 38.2004 28.52 38.4727C27.9419 38.732 27.4489 39.1625 27.1016 39.7113C26.7543 40.2601 26.568 40.9032 26.5655 41.5614V41.9091C26.5655 42.9941 26.1536 44.0346 25.4205 44.8018C24.6874 45.569 23.6931 46 22.6564 46C21.6196 46 20.6253 45.569 19.8922 44.8018C19.1591 44.0346 18.7473 42.9941 18.7473 41.9091V41.725C18.7321 41.048 18.5227 40.3914 18.1463 39.8405C17.7698 39.2897 17.2437 38.8701 16.6364 38.6364C16.0468 38.3641 15.3929 38.2829 14.7589 38.4032C14.1248 38.5235 13.5397 38.8398 13.0791 39.3114L12.9618 39.4341C12.5988 39.8145 12.1676 40.1162 11.6931 40.3221C11.2185 40.5279 10.7099 40.6339 10.1961 40.6339C9.68242 40.6339 9.17374 40.5279 8.69919 40.3221C8.22463 40.1162 7.7935 39.8145 7.43045 39.4341C7.067 39.0542 6.77867 38.603 6.58195 38.1063C6.38523 37.6097 6.28397 37.0774 6.28397 36.5398C6.28397 36.0022 6.38523 35.4698 6.58195 34.9732C6.77867 34.4766 7.067 34.0254 7.43045 33.6455L7.54773 33.5227C7.99832 33.0407 8.30059 32.4284 8.41555 31.7648C8.53052 31.1013 8.45291 30.4169 8.19273 29.8C7.94496 29.195 7.53357 28.6791 7.00918 28.3156C6.4848 27.9522 5.87031 27.7572 5.24136 27.7545H4.90909C3.87234 27.7545 2.87804 27.3235 2.14495 26.5563C1.41185 25.7892 1 24.7486 1 23.6636C1 22.5787 1.41185 21.5381 2.14495 20.7709C2.87804 20.0037 3.87234 19.5727 4.90909 19.5727H5.085C5.73194 19.5569 6.35937 19.3377 6.88572 18.9438C7.41207 18.5498 7.81299 17.9992 8.03636 17.3636C8.29654 16.7467 8.37416 16.0623 8.25919 15.3988C8.14423 14.7353 7.84196 14.123 7.39136 13.6409L7.27409 13.5182C6.91064 13.1382 6.62231 12.6871 6.42558 12.1904C6.22886 11.6938 6.12761 11.1615 6.12761 10.6239C6.12761 10.0863 6.22886 9.55392 6.42558 9.05729C6.62231 8.56066 6.91064 8.10948 7.27409 7.72955C7.63714 7.34919 8.06827 7.04745 8.54282 6.84157C9.01738 6.6357 9.52606 6.52974 10.0398 6.52974C10.5535 6.52974 11.0622 6.6357 11.5367 6.84157C12.0113 7.04745 12.4424 7.34919 12.8055 7.72955L12.9227 7.85227C13.3834 8.32382 13.9684 8.64015 14.6025 8.76046C15.2365 8.88077 15.8905 8.79955 16.48 8.52727H16.6364C17.2145 8.26798 17.7075 7.83745 18.0548 7.28868C18.402 6.7399 18.5884 6.09684 18.5909 5.43864V5.09091C18.5909 4.00593 19.0028 2.96539 19.7359 2.1982C20.469 1.43101 21.4632 1 22.5 1C23.5368 1 24.531 1.43101 25.2641 2.1982C25.9972 2.96539 26.4091 4.00593 26.4091 5.09091V5.275C26.4116 5.9332 26.598 6.57627 26.9452 7.12504C27.2925 7.67382 27.7855 8.10435 28.3636 8.36364C28.9532 8.63592 29.6071 8.71714 30.2412 8.59683C30.8752 8.47652 31.4603 8.16019 31.9209 7.68864L32.0382 7.56591C32.4012 7.18555 32.8324 6.88381 33.3069 6.67794C33.7815 6.47207 34.2901 6.3661 34.8039 6.3661C35.3176 6.3661 35.8263 6.47207 36.3008 6.67794C36.7754 6.88381 37.2065 7.18555 37.5695 7.56591C37.933 7.94584 38.2213 8.39702 38.4181 8.89365C38.6148 9.39028 38.716 9.92262 38.716 10.4602C38.716 10.9978 38.6148 11.5302 38.4181 12.0268C38.2213 12.5234 37.933 12.9746 37.5695 13.3545L37.4523 13.4773C37.0017 13.9593 36.6994 14.5716 36.5844 15.2352C36.4695 15.8987 36.5471 16.5831 36.8073 17.2V17.3636C37.055 17.9686 37.4664 18.4846 37.9908 18.848C38.5152 19.2114 39.1297 19.4065 39.7586 19.4091H40.0909C41.1277 19.4091 42.122 19.8401 42.8551 20.6073C43.5882 21.3745 44 22.415 44 23.5C44 24.585 43.5882 25.6255 42.8551 26.3927C42.122 27.1599 41.1277 27.5909 40.0909 27.5909H39.915C39.2861 27.5935 38.6716 27.7886 38.1472 28.152C37.6228 28.5154 37.2114 29.0314 36.9636 29.6364Z" stroke="#131215" stroke-width="2" stroke-linecap="round" stroke-linejoin="round"/>
</svg>
